<?xml version="1.0" encoding="UTF-8" standalone="no" ?>
<!DOCTYPE svg PUBLIC "-//W3C//DTD SVG 1.1//EN" "http://www.w3.org/Graphics/SVG/1.1/DTD/svg11.dtd">
<svg xmlns="http://www.w3.org/2000/svg" xmlns:xlink="http://www.w3.org/1999/xlink" version="1.1" width="1080" height="1080" viewBox="0 0 1080 1080" xml:space="preserve">
<desc>Created with Fabric.js 5.2.4</desc>
<defs>
</defs>
<g transform="matrix(1 0 0 1 540 540)" id="2844c601-05b8-4c37-9242-dfa3dacaf5ea"  >
<rect style="stroke: none; stroke-width: 1; stroke-dasharray: none; stroke-linecap: butt; stroke-dashoffset: 0; stroke-linejoin: miter; stroke-miterlimit: 4; fill: rgb(255,255,255); fill-rule: nonzero; opacity: 1; visibility: hidden;" vector-effect="non-scaling-stroke"  x="-540" y="-540" rx="0" ry="0" width="1080" height="1080" />
</g>
<g transform="matrix(1 0 0 1 540 540)" id="cd732851-f1af-4de3-8c85-23059da7fcb8"  >
</g>
<g transform="matrix(19.77 0 0 19.77 540 540)" id="87a61e62-586a-43d0-8846-df70f3b228ac"  >
<path style="stroke: rgb(0,0,0); stroke-width: 0; stroke-dasharray: none; stroke-linecap: butt; stroke-dashoffset: 0; stroke-linejoin: miter; stroke-miterlimit: 4; fill: rgb(10,111,223); fill-rule: nonzero; opacity: 1;" vector-effect="non-scaling-stroke"  transform=" translate(-24.86, -26.04)" d="M 18.9062 23 C 18.9062 21.4062 17.5 20 15.9062 20 L 12.9062 20 C 9.53125 20 6.90625 22.7188 6.90625 26 L 6.90625 32 C 6.90625 35.2812 9.625 38 12.9062 38 L 15.9062 38 C 17.5938 38 18.9062 36.6875 18.9062 35 L 18.9062 23 Z M 15.9062 35 L 12.9062 35 C 11.2188 35 9.90625 33.6875 9.90625 32 L 9.90625 26 C 9.90625 24.4062 11.2188 23 12.9062 23 L 15.9062 23 L 15.9062 35 Z M 36.9062 38 C 40.1875 38 42.9062 35.2812 42.9062 32 L 42.9062 26 C 42.9062 22.7188 40.1875 20.0938 36.9062 20.0938 L 34 20.0938 C 32.3125 20.0938 31 21.5 31 23.0938 L 31 35.0938 C 31 36.7812 32.3125 38.0938 34 38.0938 L 36.9062 38.0938 L 36.9062 38 Z M 33.9062 23 L 36.8125 23 C 38.4062 23 39.8125 24.4062 39.8125 26 L 39.8125 32 C 39.8125 33.6875 38.4062 35 36.8125 35 L 33.8125 35 L 33.9062 23 Z M 27.25 2.1875 C 12.8125 0.78125 1.375 12.3125 1 26.0938 L 0.90625 27.5 C 0.90625 28.3438 1.65625 29 2.5 29 C 3.25 29 3.90625 28.3438 4 27.5938 L 4 26 C 4.28125 14.0938 14.3125 3.96875 26.875 5.09375 C 37.8438 6.125 46 15.6875 46 26.6562 L 46 42.5 C 46 44.9375 43.9375 47 41.5 47 L 33.625 47 C 34.0938 45.9688 34.0938 44.75 33.4375 43.5312 C 32.5938 41.9375 30.8125 41 29.0312 41 L 23.5938 41 C 21.4375 41 19.4688 42.5 19 44.6562 C 18.5312 47.5625 20.6875 50 23.4062 50 L 41.3125 50 C 45.4375 50 48.8125 46.7188 48.8125 42.5938 L 48.8125 26.6562 C 49 14.1875 39.625 3.3125 27.25 2.1875 Z M 29.4062 47 L 23.4062 47 C 22.5625 47 21.9062 46.3438 21.9062 45.5 C 21.9062 44.75 22.5625 44 23.4062 44 L 29.4062 44 C 30.1562 44 30.9062 44.75 30.9062 45.5 C 30.9062 46.3438 30.25 47 29.4062 47 Z" stroke-linecap="round" />
</g>
</svg>