<?xml version="1.0" encoding="UTF-8" standalone="no" ?>
<!DOCTYPE svg PUBLIC "-//W3C//DTD SVG 1.1//EN" "http://www.w3.org/Graphics/SVG/1.1/DTD/svg11.dtd">
<svg xmlns="http://www.w3.org/2000/svg" xmlns:xlink="http://www.w3.org/1999/xlink" version="1.1" width="1080" height="1080" viewBox="0 0 1080 1080" xml:space="preserve">
<desc>Created with Fabric.js 5.2.4</desc>
<defs>
</defs>
<rect x="0" y="0" width="100%" height="100%" fill="transparent"></rect>
<g transform="matrix(1 0 0 1 540 540)" id="2844c601-05b8-4c37-9242-dfa3dacaf5ea"  >
<rect style="stroke: none; stroke-width: 1; stroke-dasharray: none; stroke-linecap: butt; stroke-dashoffset: 0; stroke-linejoin: miter; stroke-miterlimit: 4; fill: rgb(255,255,255); fill-rule: nonzero; opacity: 1; visibility: hidden;" vector-effect="non-scaling-stroke"  x="-540" y="-540" rx="0" ry="0" width="1080" height="1080" />
</g>
<g transform="matrix(1 0 0 1 540 540)" id="cd732851-f1af-4de3-8c85-23059da7fcb8"  >
</g>
<g transform="matrix(18.42 0 0 18.42 540.02 540.02)"  >
<path style="stroke: rgb(0,0,0); stroke-width: 0; stroke-dasharray: none; stroke-linecap: butt; stroke-dashoffset: 0; stroke-linejoin: miter; stroke-miterlimit: 4; fill: rgb(10,111,223); fill-rule: nonzero; opacity: 1;" vector-effect="non-scaling-stroke"  transform=" translate(-24, -24)" d="M 46.5 18 C 45.6562 18 45 18.75 45 19.5 L 45 43.5 C 45 44.3438 44.25 45 43.5 45 L 4.5 45 C 3.65625 45 3 44.3438 3 43.5 L 3 19.5 C 3 18.75 2.25 18 1.5 18 C 0.65625 18 0 18.75 0 19.5 L 0 43.5 C 0 46.0312 1.96875 48 4.5 48 L 43.5 48 C 45.9375 48 48 46.0312 48 43.5938 L 48 19.5 C 48 18.75 47.25 18 46.5 18 Z M 6 25.9688 C 6.09375 26.0625 6.09375 26.1562 6.09375 26.25 C 6.1875 26.3438 6.1875 26.3438 6.28125 26.4375 C 6.375 26.5312 6.375 26.625 6.46875 26.7188 C 6.5625 26.7188 6.5625 26.7188 6.5625 26.7188 L 19.0312 35.9062 C 20.4375 36.9375 22.125 37.5 24 37.5 C 25.7812 37.5 27.4688 36.9375 28.875 35.8125 L 41.3438 26.625 C 41.3438 26.625 41.3438 26.625 41.4375 26.625 C 41.5312 26.5312 41.5312 26.4375 41.625 26.3438 C 41.7188 26.25 41.7188 26.25 41.8125 26.1562 C 41.8125 26.0625 41.8125 25.9688 41.9062 25.875 C 41.9062 25.7812 41.9062 25.6875 41.9062 25.5938 C 41.9062 25.5938 42 25.5938 42 25.5 L 42 4.5 C 42 2.0625 39.9375 0 37.5 0 L 10.5 0 C 7.96875 0 6 2.0625 6 4.5 L 6 25.5 C 6 25.5938 6 25.5938 6 25.6875 C 6 25.7812 6 25.875 6 25.9688 Z M 9 4.5 C 9 3.75 9.65625 3 10.5 3 L 37.5 3 C 38.25 3 39 3.75 39 4.5 L 39 24.75 L 27.0938 33.4688 C 25.2188 34.875 22.6875 34.875 20.8125 33.4688 L 9 24.75 L 9 4.5 Z M 33 22.5 C 33 21.6562 32.25 21 31.5 21 L 16.5 21 C 15.6562 21 15 21.6562 15 22.5 C 15 23.25 15.6562 23.9062 16.5 23.9062 L 31.5 23.9062 C 32.25 24 33 23.3438 33 22.5 Z M 16.5 15 L 31.5 15 C 32.25 15 33 14.25 33 13.5 C 33 12.75 32.25 12.0938 31.5 12.0938 L 16.5 12.0938 C 15.6562 12.0938 15 12.8438 15 13.5 C 15 14.3438 15.6562 15 16.5 15 Z" stroke-linecap="round" />
</g>
<g transform="matrix(0 0 0 0 0 0)"  >
<g style=""   >
</g>
</g>
<g transform="matrix(0 0 0 0 0 0)"  >
<g style=""   >
</g>
</g>
<g transform="matrix(NaN NaN NaN NaN 0 0)"  >
<g style=""   >
</g>
</g>
<g transform="matrix(NaN NaN NaN NaN 0 0)"  >
<g style=""   >
</g>
</g>
</svg>