<?xml version="1.0" encoding="UTF-8" standalone="no" ?>
<!DOCTYPE svg PUBLIC "-//W3C//DTD SVG 1.1//EN" "http://www.w3.org/Graphics/SVG/1.1/DTD/svg11.dtd">
<svg xmlns="http://www.w3.org/2000/svg" xmlns:xlink="http://www.w3.org/1999/xlink" version="1.1" width="1080" height="1080" viewBox="0 0 1080 1080" xml:space="preserve">
<desc>Created with Fabric.js 5.2.4</desc>
<defs>
</defs>
<rect x="0" y="0" width="100%" height="100%" fill="transparent"></rect>
<g transform="matrix(1 0 0 1 540 540)" id="2844c601-05b8-4c37-9242-dfa3dacaf5ea"  >
<rect style="stroke: none; stroke-width: 1; stroke-dasharray: none; stroke-linecap: butt; stroke-dashoffset: 0; stroke-linejoin: miter; stroke-miterlimit: 4; fill: rgb(255,255,255); fill-rule: nonzero; opacity: 1; visibility: hidden;" vector-effect="non-scaling-stroke"  x="-540" y="-540" rx="0" ry="0" width="1080" height="1080" />
</g>
<g transform="matrix(1 0 0 1 540 540)" id="cd732851-f1af-4de3-8c85-23059da7fcb8"  >
</g>
<g transform="matrix(0 0 0 0 0 0)"  >
<g style=""   >
</g>
</g>
<g transform="matrix(0 0 0 0 0 0)"  >
<g style=""   >
</g>
</g>
<g transform="matrix(NaN NaN NaN NaN 0 0)"  >
<g style=""   >
</g>
</g>
<g transform="matrix(NaN NaN NaN NaN 0 0)"  >
<g style=""   >
</g>
</g>
<g transform="matrix(17.09 0 0 17.09 540 540)" id="08c27d10-e024-4480-ab70-ad697f63b440"  >
<path style="stroke: rgb(0,0,0); stroke-width: 0; stroke-dasharray: none; stroke-linecap: butt; stroke-dashoffset: 0; stroke-linejoin: miter; stroke-miterlimit: 4; fill: rgb(10,111,223); fill-rule: nonzero; opacity: 1;" vector-effect="non-scaling-stroke"  transform=" translate(-27, -24.03)" d="M 24.75 10.5 C 24.75 9.28125 25.6875 8.25 27 8.25 C 28.2188 8.25 29.25 9.28125 29.25 10.5 C 29.25 11.8125 28.2188 12.75 27 12.75 C 25.6875 12.75 24.75 11.8125 24.75 10.5 Z M 25.5938 29.25 C 22.5938 25.5 15.75 16.4062 15.75 11.25 C 15.75 5.0625 20.7188 0 27 0 C 33.1875 0 38.25 5.0625 38.25 11.25 C 38.25 16.4062 31.3125 25.5 28.3125 29.25 C 27.6562 30.1875 26.25 30.1875 25.5938 29.25 Z M 34.3125 14.5312 C 34.9688 13.0312 35.25 12 35.25 11.25 C 35.25 6.75 31.5 3 27 3 C 22.4062 3 18.75 6.75 18.75 11.25 C 18.75 12 18.9375 13.0312 19.5938 14.5312 C 20.1562 16.0312 21.0938 17.625 22.0312 19.2188 C 23.625 21.8438 25.5 24.375 27 26.25 C 28.4062 24.375 30.2812 21.8438 31.875 19.2188 C 32.8125 17.625 33.75 16.0312 34.3125 14.5312 Z M 37.9688 20.9062 C 37.9688 21 37.875 21 37.7812 21 C 38.5312 19.6875 39.2812 18.2812 39.8438 16.9688 L 50.9062 12.5625 C 52.3125 12 54 13.0312 54 14.625 L 54 40.0312 C 54 40.9688 53.4375 41.8125 52.5 42.0938 L 37.9688 47.9062 C 37.6875 48.0938 37.4062 48.0938 37.0312 48 L 16.5 42.0938 L 3 47.5312 C 1.59375 48.0938 0 47.0625 0 45.4688 L 0 20.0625 C 0 19.125 0.46875 18.2812 1.40625 18 L 12.9375 13.3125 C 13.125 14.3438 13.4062 15.2812 13.7812 16.2188 L 3 20.5312 L 3 44.3438 L 15 39.5625 L 15 28.5 C 15 27.75 15.6562 27 16.5 27 C 17.25 27 18 27.75 18 28.5 L 18 39.375 L 36 44.5312 L 36 28.5 C 36 27.75 36.6562 27 37.5 27 C 38.25 27 39 27.75 39 28.5 L 39 44.3438 L 51 39.5625 L 51 15.75 L 37.9688 20.9062 Z" stroke-linecap="round" />
</g>
<g transform="matrix(NaN NaN NaN NaN 0 0)"  >
<g style=""   >
</g>
</g>
</svg>