<?xml version="1.0" standalone="no"?>
<!DOCTYPE svg PUBLIC "-//W3C//DTD SVG 20010904//EN"
 "http://www.w3.org/TR/2001/REC-SVG-20010904/DTD/svg10.dtd">
<svg version="1.0" xmlns="http://www.w3.org/2000/svg"
 width="512.000000pt" height="512.000000pt" viewBox="0 0 512.000000 512.000000"
 preserveAspectRatio="xMidYMid meet">

<g transform="translate(0.000000,512.000000) scale(0.100000,-0.100000)"
fill="#ffffff" stroke="none">
<path d="M1186 5029 c-62 -15 -153 -68 -197 -116 -22 -24 -55 -74 -72 -111
l-32 -67 -5 -370 -5 -370 -25 -3 c-14 -1 -56 -9 -93 -18 -409 -94 -698 -479
-674 -899 10 -166 68 -341 157 -471 93 -134 261 -267 405 -319 l74 -27 -5 -47
c-2 -25 -20 -362 -40 -748 -34 -660 -35 -705 -20 -757 27 -91 106 -175 190
-203 28 -9 31 -15 42 -80 23 -139 104 -246 232 -306 l67 -32 1775 0 1775 0 67
32 c93 44 151 100 196 191 l37 76 0 2175 0 2176 -32 67 c-44 93 -100 151 -191
196 l-76 37 -1755 2 c-1038 0 -1772 -3 -1795 -8z m3528 -161 c55 -16 138 -99
154 -154 18 -60 18 -4248 0 -4308 -16 -55 -99 -138 -154 -154 -60 -17 -3448
-17 -3508 0 -58 17 -138 99 -155 159 -17 61 -12 80 24 92 85 28 164 112 191
203 15 52 14 97 -20 757 -20 386 -38 723 -40 749 -5 45 -4 48 22 55 101 25
271 133 360 227 77 83 113 136 162 238 216 452 18 992 -436 1193 -60 27 -185
62 -239 67 l-30 3 -3 335 c-2 242 1 347 10 380 15 55 96 140 148 157 53 17
3458 17 3514 1z m-3539 -1062 c113 -36 198 -89 290 -181 133 -133 200 -279
212 -459 22 -355 -215 -677 -565 -766 -81 -21 -79 40 -32 -840 32 -606 39
-789 30 -815 -25 -75 -114 -118 -198 -96 -43 12 -98 65 -107 104 -4 13 12 375
35 806 47 881 49 820 -32 841 -348 86 -587 412 -565 766 12 180 80 329 211
460 110 110 236 177 381 204 88 16 250 4 340 -24z"/>
<path d="M2240 3427 c-49 -16 -133 -102 -148 -153 -28 -94 -8 -169 63 -239 31
-32 65 -55 91 -63 31 -9 292 -12 1074 -12 782 0 1043 3 1074 12 55 16 138 99
154 154 26 89 9 163 -55 234 -77 85 3 80 -1177 79 -729 -1 -1052 -4 -1076 -12z
m2135 -172 c33 -32 33 -78 0 -110 l-24 -25 -1031 0 -1031 0 -24 25 c-16 15
-25 36 -25 55 0 19 9 40 25 55 l24 25 1031 0 1031 0 24 -25z"/>
<path d="M2240 2787 c-49 -16 -133 -102 -148 -153 -28 -94 -8 -169 63 -239 31
-32 65 -55 91 -63 60 -17 2088 -17 2148 0 55 16 138 99 154 154 26 89 9 163
-55 234 -77 85 3 80 -1177 79 -729 -1 -1052 -4 -1076 -12z m2135 -172 c33 -32
33 -78 0 -110 l-24 -25 -1031 0 -1031 0 -24 25 c-16 15 -25 36 -25 55 0 19 9
40 25 55 l24 25 1031 0 1031 0 24 -25z"/>
<path d="M1520 1987 c-49 -16 -133 -102 -148 -153 -28 -94 -8 -169 63 -239 31
-32 65 -55 91 -63 60 -17 2808 -17 2868 0 55 16 138 99 154 154 26 89 9 163
-55 234 -78 87 47 80 -1537 79 -991 -1 -1411 -4 -1436 -12z m2855 -172 c33
-32 33 -78 0 -110 l-24 -25 -1391 0 -1391 0 -24 25 c-16 15 -25 36 -25 55 0
19 9 40 25 55 l24 25 1391 0 1391 0 24 -25z"/>
<path d="M1520 1347 c-49 -16 -133 -102 -148 -153 -28 -94 -8 -169 63 -239 31
-32 65 -55 91 -63 60 -17 2808 -17 2868 0 55 16 138 99 154 154 26 89 9 163
-55 234 -78 87 47 80 -1537 79 -991 -1 -1411 -4 -1436 -12z m2855 -172 c33
-32 33 -78 0 -110 l-24 -25 -1391 0 -1391 0 -24 25 c-16 15 -25 36 -25 55 0
19 9 40 25 55 l24 25 1391 0 1391 0 24 -25z"/>
<path d="M821 3745 c-110 -24 -226 -89 -311 -175 -250 -250 -252 -649 -5 -895
122 -121 256 -183 419 -192 292 -16 560 170 649 452 17 55 22 94 22 185 0 91
-5 130 -22 185 -101 318 -428 510 -752 440z m254 -160 c172 -45 305 -179 350
-352 65 -249 -94 -511 -350 -578 -250 -65 -513 94 -580 350 -89 342 238 669
580 580z"/>
<path d="M960 3444 l0 -79 51 -12 c90 -22 160 -92 182 -182 l12 -51 79 0 79 0
-7 53 c-9 74 -66 186 -122 236 -55 52 -151 98 -221 107 l-53 7 0 -79z"/>
</g>
</svg>
