<?xml version="1.0" standalone="no"?>
<!DOCTYPE svg PUBLIC "-//W3C//DTD SVG 20010904//EN"
 "http://www.w3.org/TR/2001/REC-SVG-20010904/DTD/svg10.dtd">
<svg version="1.0" xmlns="http://www.w3.org/2000/svg"
 width="512.000000pt" height="512.000000pt" viewBox="0 0 512.000000 512.000000"
 preserveAspectRatio="xMidYMid meet">

<g transform="translate(0.000000,512.000000) scale(0.100000,-0.100000)"
fill="#ffffff" stroke="none">
<path d="M2467 5110 c-89 -23 -176 -83 -228 -159 -19 -27 -44 -55 -57 -60 -13
-7 -96 -11 -199 -11 -106 0 -191 -5 -215 -12 -48 -14 -121 -76 -138 -117 l-12
-30 -371 -3 -372 -3 -50 -25 c-64 -31 -124 -91 -155 -155 l-25 -50 0 -2125 0
-2125 25 -50 c31 -64 92 -124 155 -156 l50 -24 1685 0 1685 0 47 22 c60 27
127 94 158 158 l25 50 0 2125 0 2125 -34 63 c-37 69 -79 109 -151 144 -44 22
-54 23 -417 26 l-371 3 -12 30 c-17 41 -90 103 -138 117 -24 7 -111 12 -223
12 l-183 0 -40 47 c-123 140 -195 182 -324 189 -42 2 -94 -1 -115 -6z m164
-152 c54 -18 103 -58 143 -115 22 -31 57 -64 84 -80 46 -28 50 -28 254 -33
264 -6 253 1 253 -166 0 -114 0 -116 -28 -140 l-28 -24 -749 0 -749 0 -28 24
c-28 24 -28 26 -28 140 0 167 -11 160 253 166 203 5 208 5 253 32 26 15 64 51
85 80 20 29 48 62 62 73 60 49 153 67 223 43z m-1028 -462 c6 -83 28 -135 79
-183 68 -66 29 -63 870 -63 507 0 776 4 801 11 48 13 112 70 139 122 12 24 22
69 25 113 l6 74 337 0 c332 0 337 0 380 -23 30 -16 51 -37 67 -67 l23 -43 0
-2077 0 -2077 -23 -43 c-16 -30 -37 -51 -67 -67 l-43 -23 -1637 0 -1637 0 -43
23 c-30 16 -51 37 -67 67 l-23 43 0 2077 0 2077 23 43 c16 30 37 51 67 67 43
23 48 23 380 23 l337 0 6 -74z"/>
<path d="M2517 4780 c-54 -42 -43 -184 16 -204 68 -24 117 42 103 139 -7 47
-42 85 -76 85 -10 0 -29 -9 -43 -20z"/>
<path d="M1002 4390 c-12 -5 -27 -21 -32 -35 -6 -17 -10 -302 -10 -758 0 -676
1 -734 17 -757 46 -66 658 -742 679 -750 32 -12 32 -12 233 108 l173 104 28
-28 c15 -16 280 -316 588 -666 309 -350 570 -639 582 -643 32 -10 49 -1 196
110 l139 104 208 -207 207 -207 0 -147 0 -148 -1450 0 -1450 0 0 980 c0 967 0
980 -20 1000 -30 30 -83 27 -109 -7 l-21 -26 2 -1029 3 -1030 24 -19 c23 -19
62 -19 1571 -19 1509 0 1548 0 1571 19 l24 19 0 2001 c0 1906 -1 2001 -18
2018 -15 16 -41 18 -205 21 -179 3 -189 2 -215 -18 -35 -28 -37 -77 -4 -108
22 -20 33 -22 160 -22 l137 0 0 -1637 0 -1637 -188 187 c-161 160 -193 187
-219 187 -29 0 -45 -11 -280 -187 l-31 -24 -588 665 c-552 626 -589 666 -620
666 -24 0 -80 -29 -207 -105 -96 -58 -179 -105 -183 -104 -5 0 -138 147 -296
325 l-288 325 0 669 0 670 138 0 c132 0 140 1 160 23 31 33 29 80 -4 106 -25
20 -39 21 -203 20 -97 0 -186 -4 -199 -9z"/>
<path d="M1810 3745 c-150 -42 -254 -157 -281 -311 -28 -162 63 -329 219 -402
50 -24 69 -27 157 -27 92 0 104 2 154 30 105 58 168 163 179 298 4 61 2 70
-18 92 -22 24 -29 25 -146 25 -120 0 -123 0 -143 -26 -28 -35 -26 -69 4 -99
20 -21 34 -25 85 -25 35 0 60 -4 60 -10 0 -25 -42 -90 -72 -111 -41 -29 -138
-38 -188 -17 -153 64 -193 251 -81 371 66 72 182 93 268 49 58 -30 96 -29 122
4 27 35 26 56 -4 93 -52 61 -211 95 -315 66z"/>
<path d="M2605 3750 c-12 -4 -26 -14 -32 -21 -13 -17 -253 -645 -253 -664 0
-28 41 -65 74 -65 45 0 63 16 89 85 l23 60 133 0 133 0 22 -59 c24 -64 46 -86
86 -86 40 0 70 26 70 63 0 18 -53 173 -117 346 -105 280 -121 316 -148 332
-32 20 -49 22 -80 9z m69 -347 c16 -43 31 -84 34 -90 3 -10 -14 -13 -67 -13
-39 0 -71 3 -71 7 0 15 63 173 69 173 4 0 19 -35 35 -77z"/>
<path d="M3145 3748 c-45 -24 -45 -26 -45 -369 0 -315 1 -327 21 -353 27 -34
79 -36 109 -4 18 19 20 35 20 130 l0 108 58 0 c153 0 264 84 287 217 18 109
-64 234 -174 267 -63 19 -245 22 -276 4z m251 -157 c43 -26 60 -71 44 -112
-19 -46 -64 -69 -132 -69 l-58 0 0 100 0 100 58 0 c38 0 67 -6 88 -19z"/>
<path d="M2507 2612 c-24 -27 -22 -85 4 -108 20 -18 44 -19 531 -19 l510 0 24
28 c29 34 30 56 3 91 l-20 26 -518 0 c-489 0 -519 -1 -534 -18z"/>
<path d="M2747 2292 c-24 -27 -22 -85 4 -108 20 -18 42 -19 411 -19 l390 0 25
29 c27 31 25 66 -4 99 -15 16 -48 17 -413 17 -372 0 -398 -1 -413 -18z"/>
<path d="M2990 1970 c-27 -27 -26 -81 1 -106 20 -18 40 -19 291 -19 l270 0 25
29 c27 31 25 66 -4 99 -15 15 -42 17 -290 17 -260 0 -274 -1 -293 -20z"/>
<path d="M1547 1813 c-8 -10 -19 -30 -22 -45 -6 -22 -1 -33 24 -58 l30 -31
265 3 c243 3 266 5 285 22 27 25 28 79 1 106 -19 19 -33 20 -293 20 -248 0
-275 -2 -290 -17z"/>
<path d="M1552 1493 c-12 -10 -24 -30 -28 -45 -5 -22 0 -33 24 -58 l30 -30
420 0 c409 0 420 1 446 21 33 26 36 79 6 109 -19 19 -33 20 -449 20 -394 0
-430 -1 -449 -17z"/>
<path d="M1557 1179 c-46 -27 -41 -105 9 -128 18 -8 194 -11 599 -11 l574 0
25 23 c36 32 39 74 6 107 -20 20 -33 20 -607 20 -392 -1 -594 -4 -606 -11z"/>
</g>
</svg>
