<?xml version="1.0" standalone="no"?>
<!DOCTYPE svg PUBLIC "-//W3C//DTD SVG 20010904//EN"
 "http://www.w3.org/TR/2001/REC-SVG-20010904/DTD/svg10.dtd">
<svg version="1.0" xmlns="http://www.w3.org/2000/svg"
 width="512.000000pt" height="512.000000pt" viewBox="0 0 512.000000 512.000000"
 preserveAspectRatio="xMidYMid meet">

<g transform="translate(0.000000,512.000000) scale(0.100000,-0.100000)"
fill="#ffffff" stroke="none">
<path d="M593 5102 c-73 -26 -136 -81 -170 -150 l-28 -57 -3 -555 c-2 -379 1
-562 8 -580 26 -63 113 -75 161 -24 l24 26 5 546 c3 301 9 554 13 563 5 9 23
24 40 33 30 16 146 17 1529 14 l1498 -3 27 -28 28 -27 0 -1900 0 -1900 -28
-27 -27 -28 -1498 -3 c-1372 -3 -1500 -2 -1528 13 -18 10 -37 28 -43 41 -8 18
-11 295 -11 969 0 575 -4 954 -10 969 -23 61 -112 79 -159 32 l-26 -26 0 -988
0 -987 29 -58 c19 -39 44 -71 78 -98 94 -74 -21 -70 1678 -67 l1525 3 46 21
c60 28 119 87 150 150 l24 49 0 1935 0 1935 -24 49 c-31 63 -90 122 -150 150
l-46 21 -1530 2 c-1450 2 -1533 2 -1582 -15z"/>
<path d="M4195 4711 c-11 -5 -29 -19 -40 -31 -20 -22 -20 -40 -25 -2019 -5
-2130 -3 -2025 -50 -2048 -8 -5 -648 -10 -1422 -13 l-1406 -5 -26 -24 c-51
-48 -39 -135 23 -161 18 -7 463 -9 1441 -8 l1415 3 58 29 c39 19 71 44 98 78
75 95 69 -74 67 2151 l-3 1997 -25 25 c-28 27 -74 39 -105 26z"/>
<path d="M998 4363 c-14 -9 -31 -27 -37 -40 -16 -34 -15 -1013 0 -1047 6 -13
25 -32 43 -41 28 -14 82 -16 538 -13 l508 3 27 28 28 27 0 520 0 520 -28 27
-27 28 -513 2 c-464 3 -515 1 -539 -14z m912 -563 l0 -380 -380 0 -380 0 0
380 0 380 380 0 380 0 0 -380z"/>
<path d="M2518 4363 c-65 -41 -62 -132 6 -168 28 -14 73 -16 408 -13 l378 3
27 27 c38 39 38 97 0 136 l-27 27 -383 2 c-343 3 -385 1 -409 -14z"/>
<path d="M4595 4311 c-11 -5 -29 -19 -40 -31 -20 -22 -20 -40 -25 -2019 -3
-1098 -8 -2003 -13 -2011 -23 -47 53 -45 -1659 -50 l-1608 -5 -27 -27 c-38
-39 -38 -97 0 -136 l27 -27 1607 -3 c1791 -2 1667 -7 1761 67 34 27 59 59 78
98 l29 58 3 2005 c1 1390 -1 2013 -8 2031 -19 45 -78 69 -125 50z"/>
<path d="M2518 3883 c-65 -41 -62 -132 6 -168 28 -14 73 -16 408 -13 l378 3
27 27 c38 39 38 97 0 136 l-27 27 -383 2 c-343 3 -385 1 -409 -14z"/>
<path d="M434 3432 c-51 -41 -57 -97 -16 -143 23 -26 36 -32 71 -32 72 0 114
59 91 128 -20 60 -99 86 -146 47z"/>
<path d="M2518 3403 c-65 -41 -62 -132 6 -168 28 -14 73 -16 408 -13 l378 3
27 27 c38 39 38 97 0 136 l-27 27 -383 2 c-343 3 -385 1 -409 -14z"/>
<path d="M1430 2645 l-146 -145 -44 46 c-106 109 -166 130 -221 75 -23 -23
-29 -38 -29 -72 0 -40 5 -46 118 -160 119 -120 147 -137 200 -125 40 10 398
372 405 410 11 63 -33 116 -97 116 -38 0 -47 -7 -186 -145z"/>
<path d="M2108 2613 c-65 -41 -62 -132 6 -168 28 -14 90 -16 644 -13 l614 3
24 28 c33 38 33 96 0 134 l-24 28 -619 2 c-563 3 -620 1 -645 -14z"/>
<path d="M1429 1883 l-149 -146 -73 71 c-79 76 -111 91 -157 72 -38 -16 -60
-51 -60 -97 0 -34 10 -47 123 -160 120 -120 124 -123 167 -123 43 0 45 1 228
183 101 100 190 196 197 212 7 17 11 42 8 58 -8 39 -57 77 -100 77 -32 0 -49
-13 -184 -147z"/>
<path d="M2108 1853 c-65 -41 -62 -132 6 -168 28 -14 90 -16 644 -13 l614 3
24 28 c33 38 33 96 0 134 l-24 28 -619 2 c-563 3 -620 1 -645 -14z"/>
<path d="M855 591 c-32 -14 -55 -46 -62 -84 -5 -32 -1 -41 30 -72 25 -25 44
-35 67 -35 23 0 42 10 67 35 31 31 35 40 30 72 -11 64 -78 107 -132 84z"/>
</g>
</svg>
