<?xml version="1.0" standalone="no"?>
<!DOCTYPE svg PUBLIC "-//W3C//DTD SVG 20010904//EN"
 "http://www.w3.org/TR/2001/REC-SVG-20010904/DTD/svg10.dtd">
<svg version="1.0" xmlns="http://www.w3.org/2000/svg"
 width="512.000000pt" height="512.000000pt" viewBox="0 0 512.000000 512.000000"
 preserveAspectRatio="xMidYMid meet">

<g transform="translate(0.000000,512.000000) scale(0.100000,-0.100000)"
fill="#ffffff" stroke="none">
<path d="M154 4671 c-51 -23 -104 -75 -130 -127 -19 -38 -19 -80 -19 -1984 0
-1904 0 -1946 19 -1984 26 -52 79 -104 130 -127 40 -18 121 -19 2406 -19 2285
0 2366 1 2406 19 51 23 104 75 130 127 19 38 19 80 19 1984 0 1904 0 1946 -19
1984 -26 52 -79 104 -130 127 -40 18 -121 19 -2406 19 -2285 0 -2366 -1 -2406
-19z m4757 -164 c9 -7 21 -22 27 -34 17 -31 17 -3795 0 -3826 -6 -12 -18 -27
-27 -34 -23 -18 -4679 -18 -4702 0 -9 7 -21 22 -27 34 -17 31 -17 3795 0 3826
6 12 18 27 27 34 23 18 4679 18 4702 0z"/>
<path d="M340 4265 l0 -85 85 0 85 0 0 85 0 85 -85 0 -85 0 0 -85z"/>
<path d="M680 4265 l0 -85 85 0 85 0 0 85 0 85 -85 0 -85 0 0 -85z"/>
<path d="M1020 4265 l0 -85 85 0 85 0 0 85 0 85 -85 0 -85 0 0 -85z"/>
<path d="M2355 4165 c-475 -76 -876 -391 -1055 -829 -71 -174 -100 -322 -101
-513 0 -159 19 -286 65 -425 77 -237 213 -445 391 -600 190 -166 394 -268 635
-319 149 -31 392 -32 537 -1 306 66 568 218 760 441 244 284 356 621 332 996
-35 525 -384 991 -883 1179 -207 78 -466 105 -681 71z m380 -170 c264 -41 486
-154 670 -340 228 -230 345 -514 345 -839 0 -257 -72 -484 -219 -693 -175
-248 -473 -435 -771 -484 -96 -16 -304 -16 -400 0 -441 72 -822 413 -946 846
-63 220 -59 490 12 700 186 555 742 900 1309 810z"/>
<path d="M1994 3647 l-29 -25 0 -806 c0 -793 0 -806 20 -825 50 -51 27 -61
775 359 382 215 705 402 718 416 30 34 28 67 -5 103 -34 36 -1376 791 -1419
798 -23 4 -38 -1 -60 -20z m691 -519 c296 -167 538 -307 538 -312 -1 -9 -1070
-616 -1085 -616 -5 0 -8 277 -8 615 0 352 4 615 9 615 5 0 251 -136 546 -302z"/>
<path d="M1540 1195 l0 -85 -600 0 -600 0 0 -85 0 -85 600 0 600 0 0 -85 0
-85 85 0 85 0 0 85 0 85 1535 0 1535 0 0 85 0 85 -1535 0 -1535 0 0 85 0 85
-85 0 -85 0 0 -85z"/>
</g>
</svg>
