<?xml version="1.0" standalone="no"?>
<!DOCTYPE svg PUBLIC "-//W3C//DTD SVG 20010904//EN"
 "http://www.w3.org/TR/2001/REC-SVG-20010904/DTD/svg10.dtd">
<svg version="1.0" xmlns="http://www.w3.org/2000/svg"
 width="512.000000pt" height="512.000000pt" viewBox="0 0 512.000000 512.000000"
 preserveAspectRatio="xMidYMid meet">

<g transform="translate(0.000000,512.000000) scale(0.100000,-0.100000)"
fill="#ffffff" stroke="none">
<path d="M1025 5107 c-45 -17 -69 -37 -99 -81 -25 -38 -26 -43 -26 -187 l0
-148 -307 -3 -308 -3 -61 -28 c-77 -36 -154 -113 -191 -192 l-28 -60 -3 -1480
c-2 -1460 -2 -1481 18 -1545 35 -115 114 -198 226 -240 54 -20 74 -20 964 -20
500 0 911 -3 913 -7 4 -7 -33 -305 -48 -390 -6 -33 -6 -33 -63 -33 -68 0 -118
-23 -148 -67 -25 -38 -125 -387 -131 -458 -5 -64 19 -112 73 -142 l39 -23 715
0 715 0 39 23 c54 30 78 78 73 142 -6 71 -106 420 -131 458 -30 44 -80 67
-148 67 -57 0 -57 0 -63 33 -15 85 -52 383 -48 389 2 5 413 8 913 8 890 0 910
0 964 20 112 42 191 125 226 240 20 64 20 85 18 1640 l-3 1575 -27 50 c-32 60
-87 114 -148 146 -44 24 -50 24 -382 27 l-338 3 0 83 c0 73 -3 88 -26 122 -30
44 -54 64 -99 81 -22 9 -407 11 -1535 11 -1128 0 -1513 -2 -1535 -11z m3033
-149 c7 -7 12 -39 12 -75 l0 -63 -263 0 c-207 0 -274 -3 -315 -15 -102 -31
-190 -126 -212 -230 l-11 -55 -343 0 c-331 0 -343 -1 -364 -20 -14 -14 -22
-33 -22 -55 0 -22 8 -41 22 -55 21 -19 33 -20 364 -20 l342 0 4 -232 c3 -224
4 -235 28 -283 32 -64 92 -124 155 -154 41 -20 71 -25 163 -29 l112 -5 0 -87
c0 -97 13 -127 69 -150 49 -20 80 -4 178 92 l92 91 3 -597 3 -598 28 -24 c34
-29 56 -30 91 -3 l26 20 0 630 0 629 225 0 225 0 0 -975 0 -975 -225 0 -225 0
0 205 c0 192 -1 206 -20 225 -22 22 -60 26 -90 10 -32 -17 -40 -67 -40 -256
l0 -184 -289 0 -289 0 -4 263 c-4 231 -7 269 -25 324 -27 81 -70 148 -137 211
-60 57 -106 82 -263 142 -145 55 -166 76 -171 170 l-4 70 58 63 c33 34 72 88
87 119 54 107 57 133 57 515 0 331 -1 356 -21 407 -25 67 -86 133 -154 166
-50 25 -51 25 -355 25 -304 0 -305 0 -355 -25 -68 -33 -129 -99 -154 -166 -20
-51 -21 -76 -21 -407 0 -380 3 -407 56 -514 14 -30 53 -84 86 -119 l60 -64 -4
-70 c-5 -94 -26 -115 -171 -170 -157 -60 -203 -85 -263 -142 -67 -63 -110
-130 -137 -211 -18 -55 -21 -93 -25 -324 l-4 -263 -289 0 -289 0 0 1325 0
1325 618 0 c608 0 619 0 640 20 14 14 22 33 22 55 0 22 -8 41 -22 55 -21 20
-32 20 -640 20 l-618 0 0 213 c0 152 3 216 12 225 17 17 2979 17 2996 0z m838
-314 c15 -11 37 -33 48 -48 20 -26 21 -40 21 -349 l0 -322 -24 -34 c-49 -69
-62 -71 -479 -71 -254 0 -380 -4 -395 -11 -12 -6 -59 -48 -104 -92 l-83 -82 0
38 c0 55 -24 104 -62 127 -28 17 -50 20 -149 20 -142 0 -188 19 -226 90 -23
42 -23 49 -23 334 0 262 2 295 19 332 17 38 54 73 91 87 8 3 313 5 677 4 651
-2 662 -2 689 -23z m-3998 -181 l3 -73 -256 0 c-209 0 -261 -3 -285 -15 -64
-33 -60 59 -58 -1411 l3 -1336 33 -29 32 -29 2190 0 2190 0 32 29 33 29 3
1021 2 1021 28 5 c31 7 91 24 110 31 9 5 12 -225 12 -1129 l0 -1135 -28 -53
c-17 -34 -44 -65 -71 -84 l-43 -30 -2268 0 -2268 0 -43 30 c-27 19 -54 50 -71
84 l-28 53 0 1450 c0 1114 3 1460 12 1492 15 50 89 127 138 143 23 7 132 11
315 10 l280 -2 3 -72z m0 -1485 l2 -1258 -225 0 -225 0 0 1260 0 1260 223 -2
222 -3 3 -1257z m1963 1049 c18 -12 44 -38 56 -56 22 -32 23 -44 23 -203 l0
-169 -22 6 c-41 13 -87 46 -118 85 -40 51 -84 61 -137 31 -152 -86 -250 -117
-392 -128 l-91 -6 0 175 c0 166 1 177 23 209 12 18 38 44 56 56 33 23 40 23
301 23 261 0 268 0 301 -23z m-125 -487 c44 -38 98 -66 158 -81 l48 -12 -4
-111 c-3 -95 -7 -119 -30 -168 -73 -156 -250 -250 -410 -218 -128 24 -233 105
-286 218 -23 48 -28 73 -30 165 l-4 107 50 0 c131 0 304 42 412 99 30 17 57
30 59 30 2 1 19 -12 37 -29z m-243 -741 c63 -10 150 -3 225 17 20 6 22 3 22
-28 0 -20 13 -62 30 -94 34 -69 31 -78 -53 -116 -44 -19 -68 -23 -157 -23 -89
0 -113 4 -157 23 -84 38 -87 47 -53 116 17 32 30 74 30 94 0 31 2 34 23 28 12
-3 52 -11 90 -17z m-201 -332 c15 -9 61 -28 102 -42 105 -35 228 -35 333 0 72
24 167 79 193 110 10 12 20 11 68 -7 125 -45 217 -95 254 -136 84 -94 98 -157
98 -454 l0 -218 -149 0 -149 0 -4 116 c-3 113 -4 116 -31 140 -34 29 -56 30
-91 3 -25 -20 -26 -23 -26 -140 l0 -119 -330 0 -330 0 0 119 c0 117 -1 120
-26 140 -35 27 -57 26 -91 -3 -27 -24 -28 -27 -31 -140 l-4 -116 -150 0 -150
0 4 258 c3 253 4 258 30 314 30 65 91 135 140 161 18 9 78 35 133 56 l100 39
40 -32 c22 -18 52 -40 67 -49z m553 -1389 c3 -24 16 -119 28 -213 l23 -170
-335 -3 c-184 -1 -335 -1 -336 0 -2 3 19 166 50 386 l6 42 279 0 279 0 6 -42z
m343 -727 c29 -104 52 -192 52 -195 0 -3 -306 -6 -680 -6 -374 0 -680 3 -680
6 0 3 23 91 52 195 l51 189 577 0 577 0 51 -189z"/>
<path d="M1222 4800 c-47 -44 -15 -130 48 -130 38 0 70 34 70 75 0 41 -32 75
-70 75 -14 0 -36 -9 -48 -20z"/>
<path d="M1522 4800 c-47 -44 -15 -130 48 -130 38 0 70 34 70 75 0 41 -32 75
-70 75 -14 0 -36 -9 -48 -20z"/>
<path d="M1822 4800 c-47 -44 -15 -130 48 -130 38 0 70 34 70 75 0 41 -32 75
-70 75 -14 0 -36 -9 -48 -20z"/>
<path d="M3633 4444 c-20 -20 -24 -31 -19 -57 13 -70 -11 -67 583 -67 l534 0
24 25 c30 30 32 64 4 99 l-20 26 -540 0 -540 0 -26 -26z"/>
<path d="M3633 4144 c-20 -20 -24 -31 -19 -57 13 -70 -11 -67 583 -67 l534 0
24 25 c30 30 32 64 4 99 l-20 26 -540 0 -540 0 -26 -26z"/>
</g>
</svg>
