<?xml version="1.0" standalone="no"?>
<!DOCTYPE svg PUBLIC "-//W3C//DTD SVG 20010904//EN"
 "http://www.w3.org/TR/2001/REC-SVG-20010904/DTD/svg10.dtd">
<svg version="1.0" xmlns="http://www.w3.org/2000/svg"
 width="512.000000pt" height="512.000000pt" viewBox="0 0 512.000000 512.000000"
 preserveAspectRatio="xMidYMid meet">

<g transform="translate(0.000000,512.000000) scale(0.100000,-0.100000)"
fill="#ffffff" stroke="none">
<path d="M860 5109 c-32 -13 -78 -56 -96 -91 -10 -20 -14 -67 -14 -173 0 -142
1 -147 25 -170 13 -14 31 -25 39 -25 24 0 64 21 73 39 4 9 10 75 13 146 l5
130 280 3 280 2 -70 -72 c-120 -125 -175 -259 -175 -425 0 -163 50 -288 163
-410 l70 -74 -28 -100 c-32 -111 -29 -143 16 -168 24 -13 42 -10 235 47 176
51 225 62 309 66 503 24 815 525 582 935 -17 30 -62 88 -100 128 l-70 73 909
-2 909 -3 3 -1252 2 -1253 -135 0 -136 0 16 31 c26 50 55 178 55 243 -1 165
-63 310 -185 431 -93 93 -161 135 -282 178 -77 27 -105 31 -219 35 -158 5
-251 -14 -384 -80 -68 -33 -102 -59 -171 -127 -93 -93 -145 -182 -174 -296
-29 -113 -13 -281 35 -375 l20 -40 -630 0 -630 0 0 34 c0 48 -36 161 -72 223
-38 68 -117 154 -173 190 -25 15 -45 30 -45 33 0 3 22 22 49 42 27 21 71 67
96 103 227 318 56 754 -327 839 l-28 6 0 236 0 235 -25 24 c-31 32 -74 33
-103 2 -21 -23 -22 -31 -22 -259 l0 -235 -62 -17 c-185 -51 -328 -192 -382
-375 -20 -68 -21 -208 -1 -280 29 -112 107 -226 198 -292 l38 -27 -44 -31
c-103 -70 -184 -178 -229 -301 l-23 -65 0 -605 c0 -605 0 -605 23 -671 42
-121 134 -247 220 -300 17 -12 32 -24 32 -28 0 -4 -22 -22 -49 -39 -70 -46
-161 -147 -203 -227 -59 -113 -69 -166 -75 -387 -6 -211 -3 -238 27 -268 19
-19 36 -20 600 -20 l581 0 24 25 c25 24 25 25 25 228 0 235 -13 308 -77 430
-42 78 -153 198 -216 232 -20 11 -37 22 -37 25 0 3 23 21 51 39 93 63 179 190
216 318 14 50 17 128 21 535 l4 478 675 0 675 0 62 -50 c127 -101 276 -156
451 -166 80 -5 136 -17 284 -61 101 -30 198 -53 214 -51 19 2 38 13 51 31 l20
27 -32 108 -32 107 32 27 31 27 212 3 212 3 35 27 c73 56 68 -48 68 1373 0
1079 -2 1280 -14 1303 -19 36 -65 78 -99 91 -38 15 -3361 14 -3397 0z m1205
-154 c273 -57 466 -304 427 -544 -41 -247 -277 -430 -557 -431 -64 0 -107 -9
-210 -40 -71 -21 -131 -37 -134 -35 -2 3 3 30 12 60 9 31 13 64 10 73 -4 9
-44 53 -89 97 -113 109 -147 180 -152 315 -3 74 1 109 16 156 81 256 382 411
677 349z m-1074 -1211 c153 -77 241 -246 211 -406 -30 -159 -136 -274 -291
-314 -174 -44 -360 47 -440 216 -23 48 -26 68 -26 160 0 96 3 110 29 165 76
153 235 236 409 213 31 -4 80 -19 108 -34z m2468 -529 c142 -34 297 -148 355
-263 54 -106 69 -219 42 -319 -25 -93 -58 -145 -148 -236 -95 -94 -99 -104
-73 -177 8 -23 15 -46 15 -50 0 -4 -57 10 -126 31 -94 29 -143 39 -194 39
-270 0 -503 151 -571 371 -21 67 -24 159 -8 228 38 168 191 316 384 372 76 22
237 24 324 4z m-2506 -375 c89 -28 177 -95 228 -172 70 -108 72 -123 77 -495
2 -183 0 -333 -5 -333 -4 1 -26 19 -48 40 -47 47 -147 101 -230 126 -72 21
-208 24 -285 5 -80 -19 -188 -74 -248 -127 l-52 -46 0 319 c0 346 5 389 57
485 50 91 170 184 270 207 68 16 167 12 236 -9z m-57 -971 c209 -39 355 -212
355 -425 0 -130 -40 -223 -136 -313 -164 -155 -415 -158 -582 -7 -226 204
-172 579 101 707 99 46 165 56 262 38z m43 -1024 c129 -34 249 -128 304 -237
46 -91 57 -149 57 -310 l0 -148 -481 0 -482 0 6 163 c4 129 9 174 26 221 84
237 335 374 570 311z"/>
<path d="M1565 4505 c-44 -43 -31 -112 25 -135 35 -15 84 0 100 31 30 55 -10
129 -70 129 -19 0 -40 -9 -55 -25z"/>
<path d="M1875 4505 c-67 -66 10 -174 93 -131 34 17 42 33 42 81 0 67 -87 99
-135 50z"/>
<path d="M2185 4505 c-59 -58 -5 -158 76 -140 62 14 83 101 34 143 -35 29 -79
29 -110 -3z"/>
<path d="M2931 2764 c-28 -36 -27 -79 4 -109 66 -67 174 10 131 93 -17 34 -33
42 -81 42 -24 0 -39 -7 -54 -26z"/>
<path d="M3241 2764 c-56 -71 17 -161 104 -128 25 10 47 62 40 95 -14 61 -105
82 -144 33z"/>
<path d="M3551 2764 c-56 -71 17 -161 104 -128 25 10 47 62 40 95 -14 61 -105
82 -144 33z"/>
<path d="M2470 2020 c-279 -44 -490 -292 -490 -577 0 -157 54 -288 164 -399
39 -39 82 -79 96 -88 22 -15 23 -18 9 -26 -101 -58 -202 -168 -254 -275 -51
-107 -65 -194 -65 -415 0 -189 0 -191 25 -215 l24 -25 581 0 581 0 25 26 26
25 -4 222 c-4 196 -7 230 -27 292 -44 136 -145 271 -254 340 -26 17 -47 32
-47 35 0 3 13 13 28 23 52 30 159 153 191 219 61 125 77 264 46 397 -46 193
-203 362 -390 420 -74 23 -192 32 -265 21z m164 -151 c137 -25 259 -119 319
-246 30 -64 32 -75 32 -178 0 -108 -1 -113 -38 -187 -161 -326 -613 -326 -774
0 -37 74 -38 79 -38 186 0 104 2 115 32 179 58 123 171 213 303 243 71 16 94
16 164 3z m41 -1024 c87 -23 167 -70 228 -134 104 -109 137 -209 137 -423 l0
-138 -480 0 -480 0 0 138 c0 214 33 314 137 423 118 124 296 176 458 134z"/>
<path d="M4225 2024 c-400 -61 -625 -486 -446 -842 40 -79 109 -161 170 -203
28 -18 51 -36 51 -39 0 -3 -17 -14 -37 -25 -63 -34 -174 -154 -216 -232 -64
-122 -77 -195 -77 -430 0 -268 -12 -253 200 -253 83 0 159 4 169 10 10 5 24
22 30 39 10 24 10 34 -3 59 -20 39 -30 42 -147 42 l-99 0 0 148 c0 216 33 314
142 422 254 251 681 147 790 -193 15 -47 22 -100 25 -219 l6 -158 -225 0
c-213 0 -227 -1 -252 -21 -36 -28 -36 -80 0 -108 26 -20 39 -21 300 -21 259 0
275 1 294 20 30 30 33 57 27 268 -6 221 -16 274 -75 387 -42 80 -133 181 -203
227 -27 17 -49 35 -49 39 0 4 15 17 33 28 47 29 128 116 162 175 138 236 102
520 -89 711 -75 74 -175 132 -267 154 -56 13 -172 21 -214 15z m221 -175 c161
-60 268 -202 281 -374 17 -225 -142 -423 -369 -458 -179 -28 -370 75 -449 241
-53 111 -54 260 -3 369 34 71 131 170 199 203 108 52 233 59 341 19z"/>
</g>
</svg>
